# Blender v2.93.1 OBJ File: 'torus.blend'
# www.blender.org
mtllib torus.mtl
o Torus
v 17.056866 0.000000 0.000000
v 15.391585 4.020340 0.000000
v 11.371245 5.685620 0.000000
v 7.350905 4.020340 0.000000
v 5.685626 0.000000 0.000000
v 7.350905 -4.020340 0.000000
v 11.371245 -5.685620 0.000000
v 15.391585 -4.020340 0.000000
v 14.771678 0.000000 -8.528435
v 13.329502 4.020340 -7.695795
v 9.847787 5.685620 -5.685624
v 6.366069 4.020340 -3.675453
v 4.923896 0.000000 -2.842813
v 6.366069 -4.020340 -3.675453
v 9.847787 -5.685620 -5.685624
v 13.329502 -4.020340 -7.695795
v 8.528432 0.000000 -14.771679
v 7.695792 4.020340 -13.329505
v 5.685622 5.685620 -9.847788
v 3.675452 4.020340 -6.366071
v 2.842812 0.000000 -4.923896
v 3.675452 -4.020340 -6.366071
v 5.685622 -5.685620 -9.847788
v 7.695792 -4.020340 -13.329505
v 0.000001 0.000000 -17.056866
v 0.000001 4.020340 -15.391585
v 0.000001 5.685620 -11.371245
v 0.000001 4.020340 -7.350905
v 0.000000 0.000000 -5.685626
v 0.000001 -4.020340 -7.350905
v 0.000001 -5.685620 -11.371245
v 0.000001 -4.020340 -15.391585
v -8.528430 0.000000 -14.771681
v -7.695791 4.020340 -13.329505
v -5.685621 5.685620 -9.847789
v -3.675451 4.020340 -6.366071
v -2.842812 0.000000 -4.923897
v -3.675451 -4.020340 -6.366071
v -5.685621 -5.685620 -9.847789
v -7.695791 -4.020340 -13.329505
v -14.771676 0.000000 -8.528437
v -13.329502 4.020340 -7.695796
v -9.847786 5.685620 -5.685626
v -6.366069 4.020340 -3.675454
v -4.923895 0.000000 -2.842814
v -6.366069 -4.020340 -3.675454
v -9.847786 -5.685620 -5.685626
v -13.329502 -4.020340 -7.695796
v -17.056866 0.000000 -0.000001
v -15.391585 4.020340 -0.000001
v -11.371245 5.685620 -0.000001
v -7.350905 4.020340 -0.000001
v -5.685626 0.000000 -0.000000
v -7.350905 -4.020340 -0.000001
v -11.371245 -5.685620 -0.000001
v -15.391585 -4.020340 -0.000001
v -14.771681 0.000000 8.528430
v -13.329505 4.020340 7.695790
v -9.847789 5.685620 5.685621
v -6.366071 4.020340 3.675451
v -4.923897 0.000000 2.842812
v -6.366071 -4.020340 3.675451
v -9.847789 -5.685620 5.685621
v -13.329505 -4.020340 7.695790
v -8.528430 0.000000 14.771681
v -7.695791 4.020340 13.329505
v -5.685621 5.685620 9.847789
v -3.675451 4.020340 6.366071
v -2.842812 0.000000 4.923897
v -3.675451 -4.020340 6.366071
v -5.685621 -5.685620 9.847789
v -7.695791 -4.020340 13.329505
v 0.000001 0.000000 17.056866
v 0.000001 4.020340 15.391585
v 0.000001 5.685620 11.371245
v 0.000001 4.020340 7.350905
v 0.000000 0.000000 5.685626
v 0.000001 -4.020340 7.350905
v 0.000001 -5.685620 11.371245
v 0.000001 -4.020340 15.391585
v 8.528432 0.000000 14.771679
v 7.695792 4.020340 13.329505
v 5.685622 5.685620 9.847788
v 3.675452 4.020340 6.366071
v 2.842812 0.000000 4.923896
v 3.675452 -4.020340 6.366071
v 5.685622 -5.685620 9.847788
v 7.695792 -4.020340 13.329505
v 14.771678 0.000000 8.528435
v 13.329502 4.020340 7.695795
v 9.847787 5.685620 5.685624
v 6.366069 4.020340 3.675453
v 4.923896 0.000000 2.842813
v 6.366069 -4.020340 3.675453
v 9.847787 -5.685620 5.685624
v 13.329502 -4.020340 7.695795
vt 0.583333 0.500000
vt 0.500000 0.625000
vt 0.500000 0.500000
vt 0.583333 0.625000
vt 0.500000 0.750000
vt 0.583333 0.750000
vt 0.500000 0.875000
vt 0.583333 0.875000
vt 0.500000 1.000000
vt 0.583333 0.000000
vt 0.500000 0.125000
vt 0.500000 0.000000
vt 0.583333 0.250000
vt 0.500000 0.250000
vt 0.500000 0.375000
vt 0.583333 0.375000
vt 0.666667 0.500000
vt 0.666667 0.750000
vt 0.666667 1.000000
vt 0.583333 1.000000
vt 0.666667 0.000000
vt 0.583333 0.125000
vt 0.666667 0.125000
vt 0.666667 0.250000
vt 0.750000 0.500000
vt 0.666667 0.625000
vt 0.750000 0.625000
vt 0.750000 0.750000
vt 0.666667 0.875000
vt 0.750000 0.875000
vt 0.750000 0.125000
vt 0.750000 0.250000
vt 0.666667 0.375000
vt 0.750000 0.375000
vt 0.833333 0.500000
vt 0.833333 0.625000
vt 0.833333 0.750000
vt 0.833333 0.875000
vt 0.750000 1.000000
vt 0.833333 0.000000
vt 0.750000 0.000000
vt 0.833333 0.125000
vt 0.833333 0.250000
vt 0.916667 0.500000
vt 0.916667 0.625000
vt 0.916667 0.750000
vt 0.916667 1.000000
vt 0.833333 1.000000
vt 0.916667 0.000000
vt 0.916667 0.250000
vt 0.833333 0.375000
vt 1.000000 0.500000
vt 1.000000 0.625000
vt 1.000000 0.750000
vt 0.916667 0.875000
vt 1.000000 0.875000
vt 1.000000 0.125000
vt 0.916667 0.125000
vt 1.000000 0.250000
vt 1.000000 0.375000
vt 0.916667 0.375000
vt 0.083333 0.500000
vt 0.000000 0.625000
vt 0.000000 0.500000
vt 0.083333 0.625000
vt 0.000000 0.750000
vt 0.083333 0.750000
vt 0.000000 0.875000
vt 0.083333 0.875000
vt 0.000000 1.000000
vt 0.000000 0.000000
vt 0.083333 0.125000
vt 0.000000 0.125000
vt 0.083333 0.250000
vt 0.000000 0.250000
vt 0.083333 0.375000
vt 0.000000 0.375000
vt 0.166667 0.625000
vt 0.166667 0.750000
vt 0.166667 0.875000
vt 0.083333 1.000000
vt 0.083333 0.000000
vt 0.166667 0.125000
vt 0.166667 0.250000
vt 0.166667 0.375000
vt 0.166667 0.500000
vt 0.250000 0.625000
vt 0.250000 0.750000
vt 0.250000 0.875000
vt 0.166667 1.000000
vt 0.250000 0.000000
vt 0.166667 0.000000
vt 0.250000 0.125000
vt 0.250000 0.250000
vt 0.250000 0.375000
vt 0.333333 0.500000
vt 0.250000 0.500000
vt 0.333333 0.625000
vt 0.333333 0.875000
vt 0.333333 1.000000
vt 0.250000 1.000000
vt 0.333333 0.000000
vt 0.333333 0.125000
vt 0.333333 0.250000
vt 0.333333 0.375000
vt 0.416667 0.625000
vt 0.333333 0.750000
vt 0.416667 0.750000
vt 0.416667 0.875000
vt 0.416667 0.125000
vt 0.416667 0.375000
vt 0.416667 0.500000
vt 0.416667 1.000000
vt 0.416667 0.000000
vt 0.416667 0.250000
vt 1.000000 1.000000
vt 1.000000 0.000000
vn 0.8968 0.3715 -0.2403
vn 0.3807 0.9191 -0.1020
vn -0.3807 0.9191 0.1020
vn -0.8968 0.3715 0.2403
vn -0.8968 -0.3715 0.2403
vn -0.3807 -0.9191 0.1020
vn 0.3807 -0.9191 -0.1020
vn 0.8968 -0.3715 -0.2403
vn 0.6565 0.3715 -0.6565
vn 0.2787 0.9191 -0.2787
vn -0.2787 0.9191 0.2787
vn -0.6565 0.3715 0.6565
vn -0.6565 -0.3715 0.6565
vn -0.2787 -0.9191 0.2787
vn 0.2787 -0.9191 -0.2787
vn 0.6565 -0.3715 -0.6565
vn 0.2403 0.3715 -0.8968
vn 0.1020 0.9191 -0.3807
vn -0.1020 0.9191 0.3807
vn -0.2403 0.3715 0.8968
vn -0.2403 -0.3715 0.8968
vn -0.1020 -0.9191 0.3807
vn 0.1020 -0.9191 -0.3807
vn 0.2403 -0.3715 -0.8968
vn -0.2403 0.3715 -0.8968
vn -0.1020 0.9191 -0.3807
vn 0.1020 0.9191 0.3807
vn 0.2403 0.3715 0.8968
vn 0.2403 -0.3715 0.8968
vn 0.1020 -0.9191 0.3807
vn -0.1020 -0.9191 -0.3807
vn -0.2403 -0.3715 -0.8968
vn -0.6565 0.3715 -0.6565
vn -0.2787 0.9191 -0.2787
vn 0.2787 0.9191 0.2787
vn 0.6565 0.3715 0.6565
vn 0.6565 -0.3715 0.6565
vn 0.2787 -0.9191 0.2787
vn -0.2787 -0.9191 -0.2787
vn -0.6565 -0.3715 -0.6565
vn -0.8968 0.3715 -0.2403
vn -0.3807 0.9191 -0.1020
vn 0.3807 0.9191 0.1020
vn 0.8968 0.3715 0.2403
vn 0.8968 -0.3715 0.2403
vn 0.3807 -0.9191 0.1020
vn -0.3807 -0.9191 -0.1020
vn -0.8968 -0.3715 -0.2403
usemtl None
s off
f 9/1/1 2/2/1 1/3/1
f 10/4/2 3/5/2 2/2/2
f 11/6/3 4/7/3 3/5/3
f 12/8/4 5/9/4 4/7/4
f 13/10/5 6/11/5 5/12/5
f 6/11/6 15/13/6 7/14/6
f 15/13/7 8/15/7 7/14/7
f 16/16/8 1/3/8 8/15/8
f 17/17/9 10/4/9 9/1/9
f 10/4/10 19/18/10 11/6/10
f 19/18/11 12/8/11 11/6/11
f 12/8/12 21/19/12 13/20/12
f 21/21/13 14/22/13 13/10/13
f 22/23/14 15/13/14 14/22/14
f 23/24/15 16/16/15 15/13/15
f 16/16/16 17/17/16 9/1/16
f 25/25/17 18/26/17 17/17/17
f 26/27/18 19/18/18 18/26/18
f 27/28/19 20/29/19 19/18/19
f 28/30/20 21/19/20 20/29/20
f 21/21/21 30/31/21 22/23/21
f 22/23/22 31/32/22 23/24/22
f 31/32/23 24/33/23 23/24/23
f 32/34/24 17/17/24 24/33/24
f 33/35/25 26/27/25 25/25/25
f 34/36/26 27/28/26 26/27/26
f 35/37/27 28/30/27 27/28/27
f 36/38/28 29/39/28 28/30/28
f 37/40/29 30/31/29 29/41/29
f 38/42/30 31/32/30 30/31/30
f 39/43/31 32/34/31 31/32/31
f 32/34/32 33/35/32 25/25/32
f 41/44/33 34/36/33 33/35/33
f 42/45/34 35/37/34 34/36/34
f 43/46/35 36/38/35 35/37/35
f 36/38/36 45/47/36 37/48/36
f 45/49/37 38/42/37 37/40/37
f 38/42/38 47/50/38 39/43/38
f 47/50/39 40/51/39 39/43/39
f 40/51/40 41/44/40 33/35/40
f 49/52/41 42/45/41 41/44/41
f 50/53/42 43/46/42 42/45/42
f 51/54/43 44/55/43 43/46/43
f 52/56/44 45/47/44 44/55/44
f 45/49/45 54/57/45 46/58/45
f 46/58/46 55/59/46 47/50/46
f 47/50/47 56/60/47 48/61/47
f 48/61/48 49/52/48 41/44/48
f 57/62/4 50/63/4 49/64/4
f 58/65/3 51/66/3 50/63/3
f 59/67/2 52/68/2 51/66/2
f 60/69/1 53/70/1 52/68/1
f 53/71/8 62/72/8 54/73/8
f 54/73/7 63/74/7 55/75/7
f 55/75/6 64/76/6 56/77/6
f 64/76/5 49/64/5 56/77/5
f 57/62/12 66/78/12 58/65/12
f 66/78/11 59/67/11 58/65/11
f 67/79/10 60/69/10 59/67/10
f 68/80/9 61/81/9 60/69/9
f 61/82/16 70/83/16 62/72/16
f 70/83/15 63/74/15 62/72/15
f 71/84/14 64/76/14 63/74/14
f 72/85/13 57/62/13 64/76/13
f 65/86/20 74/87/20 66/78/20
f 74/87/19 67/79/19 66/78/19
f 75/88/18 68/80/18 67/79/18
f 76/89/17 69/90/17 68/80/17
f 77/91/24 70/83/24 69/92/24
f 78/93/23 71/84/23 70/83/23
f 79/94/22 72/85/22 71/84/22
f 80/95/21 65/86/21 72/85/21
f 81/96/28 74/87/28 73/97/28
f 82/98/27 75/88/27 74/87/27
f 75/88/26 84/99/26 76/89/26
f 76/89/25 85/100/25 77/101/25
f 85/102/32 78/93/32 77/91/32
f 86/103/31 79/94/31 78/93/31
f 87/104/30 80/95/30 79/94/30
f 88/105/29 73/97/29 80/95/29
f 81/96/36 90/106/36 82/98/36
f 90/106/35 83/107/35 82/98/35
f 91/108/34 84/99/34 83/107/34
f 92/109/33 85/100/33 84/99/33
f 85/102/40 94/110/40 86/103/40
f 94/110/39 87/104/39 86/103/39
f 87/104/38 96/111/38 88/105/38
f 96/111/37 81/96/37 88/105/37
f 1/3/44 90/106/44 89/112/44
f 2/2/43 91/108/43 90/106/43
f 91/108/42 4/7/42 92/109/42
f 4/7/41 93/113/41 92/109/41
f 5/12/48 94/110/48 93/114/48
f 6/11/47 95/115/47 94/110/47
f 7/14/46 96/111/46 95/115/46
f 8/15/45 89/112/45 96/111/45
f 9/1/1 10/4/1 2/2/1
f 10/4/2 11/6/2 3/5/2
f 11/6/3 12/8/3 4/7/3
f 12/8/4 13/20/4 5/9/4
f 13/10/5 14/22/5 6/11/5
f 6/11/6 14/22/6 15/13/6
f 15/13/7 16/16/7 8/15/7
f 16/16/8 9/1/8 1/3/8
f 17/17/9 18/26/9 10/4/9
f 10/4/10 18/26/10 19/18/10
f 19/18/11 20/29/11 12/8/11
f 12/8/12 20/29/12 21/19/12
f 21/21/13 22/23/13 14/22/13
f 22/23/14 23/24/14 15/13/14
f 23/24/15 24/33/15 16/16/15
f 16/16/16 24/33/16 17/17/16
f 25/25/17 26/27/17 18/26/17
f 26/27/18 27/28/18 19/18/18
f 27/28/19 28/30/19 20/29/19
f 28/30/20 29/39/20 21/19/20
f 21/21/21 29/41/21 30/31/21
f 22/23/22 30/31/22 31/32/22
f 31/32/23 32/34/23 24/33/23
f 32/34/24 25/25/24 17/17/24
f 33/35/25 34/36/25 26/27/25
f 34/36/26 35/37/26 27/28/26
f 35/37/27 36/38/27 28/30/27
f 36/38/28 37/48/28 29/39/28
f 37/40/29 38/42/29 30/31/29
f 38/42/30 39/43/30 31/32/30
f 39/43/31 40/51/31 32/34/31
f 32/34/32 40/51/32 33/35/32
f 41/44/33 42/45/33 34/36/33
f 42/45/34 43/46/34 35/37/34
f 43/46/35 44/55/35 36/38/35
f 36/38/36 44/55/36 45/47/36
f 45/49/37 46/58/37 38/42/37
f 38/42/38 46/58/38 47/50/38
f 47/50/39 48/61/39 40/51/39
f 40/51/40 48/61/40 41/44/40
f 49/52/41 50/53/41 42/45/41
f 50/53/42 51/54/42 43/46/42
f 51/54/43 52/56/43 44/55/43
f 52/56/44 53/116/44 45/47/44
f 45/49/45 53/117/45 54/57/45
f 46/58/46 54/57/46 55/59/46
f 47/50/47 55/59/47 56/60/47
f 48/61/48 56/60/48 49/52/48
f 57/62/4 58/65/4 50/63/4
f 58/65/3 59/67/3 51/66/3
f 59/67/2 60/69/2 52/68/2
f 60/69/1 61/81/1 53/70/1
f 53/71/8 61/82/8 62/72/8
f 54/73/7 62/72/7 63/74/7
f 55/75/6 63/74/6 64/76/6
f 64/76/5 57/62/5 49/64/5
f 57/62/12 65/86/12 66/78/12
f 66/78/11 67/79/11 59/67/11
f 67/79/10 68/80/10 60/69/10
f 68/80/9 69/90/9 61/81/9
f 61/82/16 69/92/16 70/83/16
f 70/83/15 71/84/15 63/74/15
f 71/84/14 72/85/14 64/76/14
f 72/85/13 65/86/13 57/62/13
f 65/86/20 73/97/20 74/87/20
f 74/87/19 75/88/19 67/79/19
f 75/88/18 76/89/18 68/80/18
f 76/89/17 77/101/17 69/90/17
f 77/91/24 78/93/24 70/83/24
f 78/93/23 79/94/23 71/84/23
f 79/94/22 80/95/22 72/85/22
f 80/95/21 73/97/21 65/86/21
f 81/96/28 82/98/28 74/87/28
f 82/98/27 83/107/27 75/88/27
f 75/88/26 83/107/26 84/99/26
f 76/89/25 84/99/25 85/100/25
f 85/102/32 86/103/32 78/93/32
f 86/103/31 87/104/31 79/94/31
f 87/104/30 88/105/30 80/95/30
f 88/105/29 81/96/29 73/97/29
f 81/96/36 89/112/36 90/106/36
f 90/106/35 91/108/35 83/107/35
f 91/108/34 92/109/34 84/99/34
f 92/109/33 93/113/33 85/100/33
f 85/102/40 93/114/40 94/110/40
f 94/110/39 95/115/39 87/104/39
f 87/104/38 95/115/38 96/111/38
f 96/111/37 89/112/37 81/96/37
f 1/3/44 2/2/44 90/106/44
f 2/2/43 3/5/43 91/108/43
f 91/108/42 3/5/42 4/7/42
f 4/7/41 5/9/41 93/113/41
f 5/12/48 6/11/48 94/110/48
f 6/11/47 7/14/47 95/115/47
f 7/14/46 8/15/46 96/111/46
f 8/15/45 1/3/45 89/112/45
